<svg width="83" height="59" viewBox="0 0 83 59" fill="none" xmlns="http://www.w3.org/2000/svg">
<path d="M5.64062 49.7246C5.64062 47.8366 5.94987 46.0788 6.56836 44.4512C7.2194 42.8236 8.01693 41.2611 8.96094 39.7637C9.9375 38.2663 10.9629 36.7852 12.0371 35.3203C13.1439 33.8555 14.1367 32.3743 15.0156 30.877H14.8203C14.0716 30.877 13.3392 30.9258 12.623 31.0234C11.9069 31.1211 11.1745 31.1699 10.4258 31.1699C8.89583 31.1699 7.52865 30.6165 6.32422 29.5098C5.11979 28.403 4.0944 27.0195 3.24805 25.3594C2.43424 23.6667 1.79948 21.86 1.34375 19.9395C0.888021 18.0189 0.660156 16.2611 0.660156 14.666C0.790365 13.6895 0.936849 12.6641 1.09961 11.5898C1.29492 10.4831 1.53906 9.40885 1.83203 8.36719C2.125 7.32552 2.48307 6.33268 2.90625 5.38867C3.36198 4.41211 3.91536 3.54948 4.56641 2.80078C5.21745 2.05208 5.9987 1.46615 6.91016 1.04297C7.82161 0.58724 8.91211 0.343099 10.1816 0.310547C10.8001 0.310547 11.3698 0.473307 11.8906 0.798828C12.4115 1.12435 12.8509 1.54753 13.209 2.06836C13.5996 2.55664 13.9089 3.11003 14.1367 3.72852C14.3971 4.34701 14.5762 4.96549 14.6738 5.58398L16.334 23.2598C16.6595 23.0645 17.0501 22.9831 17.5059 23.0156C17.9941 23.0156 18.3685 23.0156 18.6289 23.0156H20.1914C20.4193 23.2435 20.5983 23.3737 20.7285 23.4062C20.8587 23.4388 21.0378 23.4551 21.2656 23.4551H21.6074C21.8678 23.2923 22.1608 23.097 22.4863 22.8691C22.8444 22.6413 23.1699 22.4622 23.4629 22.332C23.7884 22.1693 24.0488 22.1042 24.2441 22.1367C24.4395 22.1367 24.5046 22.2832 24.4395 22.5762C24.4069 22.8691 24.2116 23.3411 23.8535 23.9922C23.4954 24.6107 22.8932 25.4733 22.0469 26.5801C21.8516 27.0358 21.5423 27.4427 21.1191 27.8008C20.696 28.1589 20.2728 28.5332 19.8496 28.9238C19.4264 29.3145 19.0521 29.7214 18.7266 30.1445C18.401 30.5352 18.2383 30.9746 18.2383 31.4629C18.2383 31.528 18.2383 31.6419 18.2383 31.8047C18.2708 31.9349 18.2871 32.0163 18.2871 32.0488L20.1914 41.5703C20.1914 41.5703 20.1914 41.7493 20.1914 42.1074C20.224 42.4655 20.2402 42.8887 20.2402 43.377C20.2728 43.8652 20.3053 44.3535 20.3379 44.8418C20.3704 45.3626 20.3867 45.7858 20.3867 46.1113V46.3555C20.3867 47.4948 20.224 48.7318 19.8984 50.0664C19.5729 51.4336 19.0846 52.7031 18.4336 53.875C17.7826 55.0469 16.9525 56.0234 15.9434 56.8047C14.9342 57.6185 13.7461 58.0254 12.3789 58.0254C11.2721 58.0254 10.2956 57.765 9.44922 57.2441C8.63542 56.7233 7.93555 56.056 7.34961 55.2422C6.79622 54.4609 6.37305 53.582 6.08008 52.6055C5.78711 51.6289 5.64062 50.6686 5.64062 49.7246ZM8.0332 50.0176C8.0332 50.571 8.13086 51.1732 8.32617 51.8242C8.52148 52.4753 8.79818 53.0775 9.15625 53.6309C9.54688 54.2168 9.98633 54.6888 10.4746 55.0469C10.9954 55.4375 11.5814 55.6328 12.2324 55.6328C13.3717 55.6328 14.2832 55.2585 14.9668 54.5098C15.6504 53.7936 16.1875 52.9147 16.5781 51.873C17.0013 50.8639 17.278 49.7897 17.4082 48.6504C17.5384 47.5436 17.6035 46.6159 17.6035 45.8672C17.6035 44.7604 17.5547 43.7188 17.457 42.7422C17.3919 41.7982 17.2943 40.8542 17.1641 39.9102C17.0339 38.9661 16.8548 38.0221 16.627 37.0781C16.4316 36.1341 16.1875 35.1087 15.8945 34.002L15.6992 34.1973C15.6016 34.2949 15.39 34.5716 15.0645 35.0273C14.7389 35.4831 14.3646 36.0039 13.9414 36.5898C13.5182 37.1758 13.1113 37.7617 12.7207 38.3477C12.3301 38.9336 12.0534 39.3893 11.8906 39.7148C11.4023 40.4961 10.9303 41.2936 10.4746 42.1074C10.0189 42.9212 9.61198 43.7513 9.25391 44.5977C8.89583 45.4766 8.60286 46.3555 8.375 47.2344C8.14714 48.1458 8.0332 49.0736 8.0332 50.0176ZM3.24805 14.0801C3.24805 15.5449 3.36198 17.14 3.58984 18.8652C3.85026 20.5579 4.25716 22.1367 4.81055 23.6016C5.36393 25.0664 6.11263 26.2871 7.05664 27.2637C8.00065 28.2402 9.20508 28.7285 10.6699 28.7285C10.8327 28.7285 11.1094 28.7448 11.5 28.7773C11.9232 28.8099 12.3464 28.8099 12.7695 28.7773C13.2253 28.7448 13.6322 28.6797 13.9902 28.582C14.3483 28.4518 14.5273 28.2402 14.5273 27.9473C14.5273 27.9147 14.5111 27.8984 14.4785 27.8984C14.4785 27.8659 14.4785 27.8171 14.4785 27.752V27.5566L12.0859 6.07227C12.0208 5.71419 11.9069 5.35612 11.7441 4.99805C11.5814 4.63997 11.3861 4.31445 11.1582 4.02148C10.9303 3.69596 10.6536 3.43555 10.3281 3.24023C10.0352 3.01237 9.70964 2.89844 9.35156 2.89844C8.14714 2.89844 7.1543 3.32161 6.37305 4.16797C5.5918 5.01432 4.95703 6.02344 4.46875 7.19531C4.01302 8.36719 3.6875 9.60417 3.49219 10.9062C3.32943 12.1758 3.24805 13.2337 3.24805 14.0801ZM16.5781 24.6758C16.5781 24.7083 16.5781 24.7409 16.5781 24.7734C16.6107 24.806 16.627 24.8548 16.627 24.9199C16.627 25.0176 16.6432 25.1803 16.6758 25.4082C16.7409 25.6035 16.7897 25.8314 16.8223 26.0918C16.8874 26.3522 16.9525 26.5964 17.0176 26.8242C17.0827 27.0195 17.1152 27.166 17.1152 27.2637C17.1478 27.2637 17.1803 27.2799 17.2129 27.3125C17.278 27.3451 17.3268 27.3613 17.3594 27.3613C17.4896 27.3613 17.6523 27.2962 17.8477 27.166C18.0755 27.0358 18.3034 26.8893 18.5312 26.7266C18.7591 26.5312 18.9382 26.3359 19.0684 26.1406C19.2311 25.9128 19.3125 25.7174 19.3125 25.5547C19.3125 25.4245 19.2962 25.2943 19.2637 25.1641C19.2637 25.0339 19.1823 24.9525 19.0195 24.9199C18.9544 24.8874 18.8079 24.8548 18.5801 24.8223C18.3848 24.7897 18.1732 24.7734 17.9453 24.7734C17.75 24.7734 17.5384 24.7572 17.3105 24.7246C17.1152 24.6921 16.9688 24.6758 16.8711 24.6758H16.5781ZM29.5176 54.8516C29.485 54.7214 29.4525 54.4772 29.4199 54.1191C29.4199 53.7936 29.4199 53.5495 29.4199 53.3867C29.4199 52.6055 29.5013 51.7917 29.6641 50.9453C29.8594 50.1315 30.1035 49.3014 30.3965 48.4551C30.722 47.6413 31.0638 46.8438 31.4219 46.0625C31.8125 45.3138 32.2194 44.5814 32.6426 43.8652C33.3913 42.5632 34.14 41.3099 34.8887 40.1055C35.6374 38.901 36.4186 37.7292 37.2324 36.5898C38.0788 35.4505 38.9577 34.3438 39.8691 33.2695C40.7806 32.1953 41.7734 31.1211 42.8477 30.0469C42.8477 30.0143 42.8477 29.9167 42.8477 29.7539C42.8802 29.5911 42.8965 29.4772 42.8965 29.4121C42.8965 28.9889 42.8477 28.5007 42.75 27.9473C42.6849 27.3939 42.5547 26.873 42.3594 26.3848C42.1966 25.8965 41.9362 25.4733 41.5781 25.1152C41.2201 24.7572 40.7806 24.5781 40.2598 24.5781C39.4785 24.5781 38.7786 24.6921 38.1602 24.9199C37.5742 25.1152 37.0208 25.4082 36.5 25.7988C35.9792 26.1895 35.4746 26.6289 34.9863 27.1172C34.5306 27.6055 34.0586 28.1263 33.5703 28.6797C33.3424 28.7773 33.1309 28.8424 32.9355 28.875C32.7728 28.875 32.5775 28.875 32.3496 28.875C31.959 28.875 31.6986 28.7611 31.5684 28.5332C31.4707 28.3053 31.4219 28.0124 31.4219 27.6543V27.2148L35.9629 17.9863C36.1582 17.5632 36.2721 17.1237 36.3047 16.668C36.3698 16.2122 36.4023 15.7728 36.4023 15.3496C35.9466 15.3496 35.4095 15.4473 34.791 15.6426C34.2051 15.8053 33.7982 16.0983 33.5703 16.5215L26.1973 22.4785C25.9694 22.5436 25.7415 22.6576 25.5137 22.8203C25.3184 22.9505 25.123 23.097 24.9277 23.2598C24.765 23.4225 24.5859 23.569 24.3906 23.6992C24.1953 23.8294 23.9837 23.8945 23.7559 23.8945C23.528 23.8945 23.349 23.8132 23.2188 23.6504C23.0885 23.4876 23.0234 23.2923 23.0234 23.0645C23.0234 22.6087 23.1536 22.0391 23.4141 21.3555C23.707 20.6719 24.0814 20.1836 24.5371 19.8906C24.7975 19.6628 25.2695 19.3047 25.9531 18.8164C26.6693 18.2956 27.418 17.7585 28.1992 17.2051C28.9805 16.6517 29.7129 16.1309 30.3965 15.6426C31.1126 15.1217 31.6172 14.7799 31.9102 14.6172C32.5612 14.1615 33.3587 13.6895 34.3027 13.2012C35.2793 12.7129 36.2233 12.4688 37.1348 12.4688C37.8184 12.4688 38.3392 12.7617 38.6973 13.3477C39.0879 13.9336 39.2832 14.5358 39.2832 15.1543C39.2832 16.4238 39.0391 17.6445 38.5508 18.8164C38.0951 19.9883 37.623 21.1276 37.1348 22.2344H37.2812H37.3301C37.4277 22.2344 37.6068 22.2181 37.8672 22.1855C38.1602 22.1204 38.4694 22.0716 38.7949 22.0391C39.153 21.974 39.4622 21.9089 39.7227 21.8438C40.0156 21.7786 40.1947 21.7461 40.2598 21.7461H40.4551C41.3014 21.7461 42.0013 21.9251 42.5547 22.2832C43.1406 22.6087 43.6289 23.0319 44.0195 23.5527C44.4427 24.0736 44.7682 24.6921 44.9961 25.4082C45.2565 26.0918 45.5007 26.7754 45.7285 27.459C46.6074 26.7103 47.3236 26.1081 47.877 25.6523C48.4303 25.1966 48.8861 24.8385 49.2441 24.5781C49.6348 24.2852 49.9766 24.041 50.2695 23.8457C50.5625 23.6178 50.9043 23.39 51.2949 23.1621C51.7181 22.9017 52.2227 22.5762 52.8086 22.1855C53.3945 21.7624 54.1595 21.1927 55.1035 20.4766C55.3314 20.3464 55.6243 20.1999 55.9824 20.0371C56.3405 19.8418 56.6986 19.7441 57.0566 19.7441C57.2845 19.7441 57.4798 19.8906 57.6426 20.1836C57.8379 20.4766 57.9355 20.737 57.9355 20.9648C57.9355 21.3229 57.7891 21.6484 57.4961 21.9414L51.7832 25.9941L46.168 30.5352L45.9727 31.0234C45.9401 31.3815 45.8913 32.0326 45.8262 32.9766C45.7611 33.9206 45.6797 34.9134 45.582 35.9551C45.5169 36.9967 45.4355 37.9733 45.3379 38.8848C45.2728 39.7962 45.224 40.4473 45.1914 40.8379C45.1263 41.847 44.9147 42.9375 44.5566 44.1094C44.2311 45.2812 43.8079 46.4531 43.2871 47.625C42.7663 48.7969 42.1315 49.9362 41.3828 51.043C40.6667 52.1497 39.8529 53.1263 38.9414 53.9727C38.0625 54.819 37.0859 55.5026 36.0117 56.0234C34.9375 56.5443 33.7982 56.8047 32.5938 56.8047C31.8776 56.8047 31.2428 56.6582 30.6895 56.3652C30.1361 56.1048 29.7454 55.6003 29.5176 54.8516ZM41.3828 35.5645C41.2201 35.7923 40.9434 36.1504 40.5527 36.6387C40.1947 37.127 39.8203 37.6152 39.4297 38.1035C39.0716 38.5918 38.7298 39.0475 38.4043 39.4707C38.1113 39.9264 37.916 40.2031 37.8184 40.3008C37.1673 41.4076 36.4837 42.5143 35.7676 43.6211C35.084 44.7279 34.4655 45.8672 33.9121 47.0391C33.3587 48.2109 32.903 49.3991 32.5449 50.6035C32.1868 51.8405 32.0078 53.1263 32.0078 54.4609C33.5703 54.4609 34.8887 53.9401 35.9629 52.8984C38.5345 50.5221 40.3249 47.8529 41.334 44.8906C42.3757 41.9284 42.8965 38.6732 42.8965 35.125C42.8965 35.0273 42.8802 34.8483 42.8477 34.5879C42.8477 34.36 42.8477 34.1973 42.8477 34.0996L41.3828 35.5645ZM55.6895 25.3105C55.8522 23.6504 56.2266 22.0716 56.8125 20.5742C57.431 19.0768 58.1309 17.791 58.9121 16.7168C59.7259 15.6426 60.5397 14.8125 61.3535 14.2266C62.1999 13.6406 62.9323 13.4616 63.5508 13.6895C63.7135 13.5918 63.8438 13.5104 63.9414 13.4453C64.0716 13.3477 64.1693 13.2663 64.2344 13.2012C64.332 13.1035 64.4297 13.0384 64.5273 13.0059C64.6576 12.9408 64.8366 12.9082 65.0645 12.9082C65.5202 12.9082 65.9271 13.0547 66.2852 13.3477C66.6432 13.6406 66.9525 13.9987 67.2129 14.4219C67.5059 14.8451 67.7174 15.3008 67.8477 15.7891C68.0104 16.2448 68.0918 16.668 68.0918 17.0586C68.0918 17.4818 67.929 17.7747 67.6035 17.9375C67.278 18.1003 66.9036 18.1816 66.4805 18.1816C66.2201 18.1816 65.9922 18.1328 65.7969 18.0352C65.6016 17.9049 65.4225 17.7585 65.2598 17.5957C65.1296 17.4329 64.9831 17.2702 64.8203 17.1074C64.6576 16.9447 64.446 16.8307 64.1855 16.7656H64.1367H63.9902C63.9577 16.7982 63.8763 16.8796 63.7461 17.0098C63.6484 17.1074 63.5833 17.1888 63.5508 17.2539C62.8672 18.0677 62.2324 18.8001 61.6465 19.4512C61.0605 20.0697 60.5397 20.7044 60.084 21.3555C59.6608 22.0065 59.319 22.7064 59.0586 23.4551C58.8307 24.2038 58.7168 25.099 58.7168 26.1406C58.7168 26.2383 58.7168 26.3848 58.7168 26.5801C58.7168 26.7754 58.7168 26.9707 58.7168 27.166C58.7493 27.3613 58.7656 27.5566 58.7656 27.752C58.7656 27.9473 58.7656 28.0938 58.7656 28.1914C58.8307 28.5169 59.0098 28.7611 59.3027 28.9238C59.6283 29.0866 59.9212 29.2493 60.1816 29.4121C60.2793 29.4121 60.5234 29.4284 60.9141 29.4609C61.3047 29.4609 61.5326 29.4609 61.5977 29.4609C62.7695 29.4609 64.153 29.2819 65.748 28.9238C67.3431 28.5332 68.9382 28.0286 70.5332 27.4102C72.1608 26.7917 73.6908 26.0592 75.123 25.2129C76.5553 24.334 77.6947 23.4225 78.541 22.4785C78.7363 22.2181 78.8991 21.86 79.0293 21.4043C79.1921 20.9486 79.3548 20.5091 79.5176 20.0859C79.7129 19.6302 79.9245 19.2396 80.1523 18.9141C80.3802 18.5885 80.722 18.4258 81.1777 18.4258C81.6009 18.4258 81.8613 18.6048 81.959 18.9629C82.0892 19.2884 82.1543 19.6139 82.1543 19.9395C82.1543 20.9811 81.8939 21.9251 81.373 22.7715C80.8848 23.6178 80.2663 24.3828 79.5176 25.0664C78.7689 25.75 77.9388 26.3522 77.0273 26.873C76.1484 27.3939 75.3021 27.8333 74.4883 28.1914C74.2604 28.2565 73.7559 28.4355 72.9746 28.7285C72.2259 29.0215 71.4121 29.3307 70.5332 29.6562C69.6543 29.9818 68.7917 30.3073 67.9453 30.6328C67.1315 30.9258 66.5293 31.1536 66.1387 31.3164C65.6178 31.4792 65.1784 31.6094 64.8203 31.707C64.4622 31.7721 64.1367 31.8372 63.8438 31.9023C63.5508 31.9674 63.2415 32 62.916 32C62.623 32.0326 62.265 32.0488 61.8418 32.0488C60.6699 32.0488 59.6934 31.9023 58.9121 31.6094C58.1634 31.3164 57.5612 30.8932 57.1055 30.3398C56.6497 29.7539 56.3079 29.054 56.0801 28.2402C55.8848 27.3939 55.7546 26.4173 55.6895 25.3105Z" fill="black"/>
</svg>
